<?xml version="1.0" encoding="iso-8859-1"?>
<!-- Generator: Adobe Illustrator 19.0.0, SVG Export Plug-In . SVG Version: 6.00 Build 0)  -->
<svg xmlns="http://www.w3.org/2000/svg" xmlns:xlink="http://www.w3.org/1999/xlink" version="1.1" id="Capa_1" x="0px" y="0px" viewBox="0 0 380 380" style="enable-background:new 0 0 380 380;" xml:space="preserve" width="512px" height="512px">
<g id="XMLID_879_">
	<path id="XMLID_985_" d="M309.19,19.484c-16.153,0-31.954,5.586-44.49,15.73c-7.215,5.838-13.179,13.05-17.597,21.107   c-17.712-6.917-36.971-10.72-57.103-10.72s-39.39,3.803-57.103,10.72c-4.418-8.057-10.383-15.269-17.597-21.107   c-12.536-10.144-28.337-15.73-44.49-15.73C31.765,19.484,0,51.249,0,90.293c0,16.933,6.074,33.319,17.103,46.142   c6.468,7.521,14.405,13.534,23.217,17.745c-5.04,15.394-7.776,31.822-7.776,48.878c0,29.915,8.426,59.024,24.367,84.179   c14.41,22.741,34.343,41.364,57.886,54.178l0.003,0.145l5.434,2.69c21.803,10.793,45.276,16.265,69.768,16.265   c6.123,0,12.182-0.342,18.167-1.024c4.208-0.479,8.377-1.136,12.509-1.95c0.685-0.135,1.368-0.278,2.051-0.422   c11.307-2.388,22.311-6.021,32.932-10.908c0.503-0.231,1-0.48,1.502-0.717c0.869-0.411,1.741-0.816,2.605-1.244l0,0l0,0   l5.435-2.721l0.002-0.115c23.543-12.814,43.475-31.437,57.885-54.178c15.941-25.155,24.367-54.264,24.367-84.179   c0-17.057-2.737-33.484-7.776-48.878c8.812-4.212,16.749-10.225,23.217-17.745C373.926,123.613,380,107.226,380,90.293   C380,51.249,348.235,19.484,309.19,19.484z M20,90.293c0-28.016,22.793-50.809,50.81-50.809c18.63,0,35.117,9.885,43.976,25.274   c-29.143,15.913-52.727,40.771-67.048,70.857C31.044,127.186,20,109.97,20,90.293z M186.188,340.462   c-0.417-0.011-0.831-0.032-1.247-0.047c-0.85-0.03-1.7-0.062-2.548-0.107c-0.494-0.026-0.987-0.062-1.48-0.094   c-0.767-0.049-1.533-0.1-2.298-0.162c-0.521-0.042-1.041-0.091-1.561-0.139c-0.735-0.068-1.47-0.139-2.203-0.219   c-0.529-0.057-1.057-0.119-1.585-0.183c-0.724-0.087-1.446-0.18-2.167-0.278c-0.526-0.072-1.052-0.146-1.577-0.223   c-0.726-0.108-1.45-0.224-2.174-0.343c-0.512-0.084-1.024-0.168-1.535-0.258c-0.748-0.132-1.494-0.275-2.239-0.42   c-0.48-0.093-0.961-0.182-1.44-0.281c-0.818-0.168-1.632-0.349-2.446-0.533c-0.401-0.09-0.803-0.174-1.204-0.268   c-1.201-0.282-2.399-0.578-3.592-0.892c-0.01-0.003-0.021-0.005-0.031-0.008c-1.203-0.317-2.401-0.654-3.595-1.005   c-0.391-0.115-0.778-0.24-1.168-0.358c-0.803-0.244-1.605-0.489-2.404-0.748c-0.462-0.15-0.922-0.309-1.383-0.464   c-0.723-0.243-1.445-0.487-2.164-0.742c-0.486-0.173-0.971-0.352-1.456-0.53c-0.693-0.255-1.386-0.514-2.076-0.78   c-0.49-0.189-0.978-0.383-1.466-0.578c-0.683-0.273-1.364-0.552-2.044-0.836c-0.485-0.203-0.97-0.408-1.454-0.617   c-0.268-0.116-0.534-0.238-0.802-0.355c2.427-28.296,26.235-50.584,55.149-50.584s52.722,22.288,55.149,50.584   c-0.262,0.115-0.522,0.234-0.784,0.347c-0.497,0.215-0.995,0.425-1.494,0.634c-0.665,0.278-1.331,0.55-1.998,0.818   c-0.502,0.201-1.004,0.4-1.508,0.594c-0.677,0.261-1.356,0.515-2.036,0.765c-0.495,0.182-0.99,0.365-1.488,0.542   c-0.707,0.251-1.417,0.491-2.128,0.73c-0.472,0.159-0.944,0.321-1.417,0.475c-0.783,0.254-1.571,0.494-2.358,0.733   c-0.404,0.123-0.807,0.252-1.212,0.371c-1.172,0.344-2.348,0.674-3.529,0.986c-0.059,0.016-0.118,0.031-0.177,0.046   c-1.163,0.306-2.331,0.595-3.501,0.87c-0.407,0.095-0.817,0.181-1.225,0.272c-0.807,0.181-1.615,0.361-2.426,0.528   c-0.481,0.099-0.964,0.188-1.447,0.282c-0.744,0.144-1.488,0.287-2.235,0.419c-0.511,0.09-1.023,0.174-1.536,0.258   c-0.722,0.119-1.446,0.235-2.171,0.343c-0.527,0.078-1.055,0.152-1.583,0.224c-0.72,0.098-1.441,0.191-2.163,0.278   c-0.528,0.063-1.057,0.125-1.586,0.183c-0.733,0.079-1.468,0.151-2.203,0.219c-0.52,0.048-1.04,0.097-1.561,0.139   c-0.764,0.062-1.531,0.113-2.298,0.162c-0.493,0.032-0.986,0.067-1.48,0.094c-0.847,0.046-1.697,0.077-2.548,0.107   c-0.416,0.015-0.83,0.036-1.247,0.047c-1.268,0.034-2.538,0.053-3.812,0.053S187.456,340.496,186.188,340.462z M327.457,203.059   c0,47.647-24.016,90.846-63.564,115.952c-6.879-34.509-37.392-60.599-73.893-60.599s-67.014,26.09-73.893,60.599   c-39.548-25.105-63.564-68.304-63.564-115.951c0-14.969,2.414-29.383,6.858-42.884c0.034,0.005,0.067,0.013,0.102,0.019   l0.105-0.655C76.843,108.036,123.791,70.028,180,65.968v30.814h20V65.968c56.209,4.061,103.157,42.069,120.392,93.571l0.105,0.655   c0.034-0.005,0.068-0.013,0.102-0.019C325.043,173.675,327.457,188.089,327.457,203.059z M332.262,135.615   c-14.321-30.086-37.905-54.944-67.048-70.857c8.86-15.389,25.346-25.274,43.976-25.274c28.017,0,50.81,22.793,50.81,50.809   C360,109.97,348.956,127.186,332.262,135.615z" fill="#FFFFFF"/>
	<rect id="XMLID_1044_" x="180" y="136.781" width="20" height="30" fill="#FFFFFF"/>
	<rect id="XMLID_1045_" x="180" y="206.781" width="20" height="30" fill="#FFFFFF"/>
</g>
<g>
</g>
<g>
</g>
<g>
</g>
<g>
</g>
<g>
</g>
<g>
</g>
<g>
</g>
<g>
</g>
<g>
</g>
<g>
</g>
<g>
</g>
<g>
</g>
<g>
</g>
<g>
</g>
<g>
</g>
</svg>
