<?xml version="1.0" encoding="iso-8859-1"?>
<!-- Generator: Adobe Illustrator 17.1.0, SVG Export Plug-In . SVG Version: 6.00 Build 0)  -->
<!DOCTYPE svg PUBLIC "-//W3C//DTD SVG 1.1//EN" "http://www.w3.org/Graphics/SVG/1.1/DTD/svg11.dtd">
<svg xmlns="http://www.w3.org/2000/svg" xmlns:xlink="http://www.w3.org/1999/xlink" version="1.1" id="Capa_1" x="0px" y="0px" viewBox="0 0 465 465" style="enable-background:new 0 0 465 465;" xml:space="preserve" width="512px" height="512px">
<g>
	<path d="M457.5,403.555c-10.91,0-16.64,2.444-21.696,4.602c-4.451,1.898-7.966,3.398-15.81,3.398c-7.844,0-11.359-1.5-15.81-3.398   c-5.056-2.157-10.787-4.602-21.696-4.602c-10.908,0-16.638,2.444-21.693,4.602c-4.45,1.898-7.965,3.398-15.807,3.398   s-11.357-1.5-15.808-3.398c-5.056-2.157-10.786-4.602-21.694-4.602s-16.638,2.444-21.693,4.602   c-4.45,1.898-7.965,3.398-15.807,3.398c-7.841,0-11.356-1.5-15.806-3.398c-5.055-2.157-10.785-4.602-21.693-4.602   c-10.907,0-16.636,2.444-21.691,4.602c-4.449,1.898-7.963,3.398-15.804,3.398c-7.842,0-11.356-1.5-15.806-3.398   c-5.055-2.157-10.785-4.602-21.693-4.602s-16.638,2.444-21.693,4.602c-4.45,1.898-7.965,3.398-15.807,3.398   c-7.841,0-11.356-1.5-15.806-3.398c-5.055-2.157-10.785-4.602-21.693-4.602c-10.907,0-16.637,2.444-21.692,4.602   c-4.45,1.898-7.964,3.398-15.806,3.398c-7.841,0-11.355-1.5-15.805-3.398c-5.055-2.157-10.784-4.602-21.692-4.602   c-4.142,0-7.5,3.357-7.5,7.5s3.358,7.5,7.5,7.5c7.841,0,11.355,1.5,15.805,3.398c5.055,2.157,10.784,4.602,21.691,4.602   c10.908,0,16.637-2.444,21.692-4.602c4.45-1.898,7.964-3.398,15.805-3.398c7.842,0,11.357,1.5,15.807,3.398   c5.055,2.157,10.785,4.602,21.693,4.602c10.908,0,16.638-2.444,21.693-4.602c4.45-1.898,7.965-3.398,15.807-3.398   s11.356,1.5,15.806,3.398c5.055,2.157,10.785,4.602,21.693,4.602c10.907,0,16.636-2.445,21.691-4.602   c4.449-1.898,7.963-3.398,15.803-3.398c7.842,0,11.357,1.5,15.807,3.398c5.055,2.157,10.785,4.602,21.693,4.602   c10.908,0,16.638-2.444,21.693-4.602c4.45-1.898,7.965-3.398,15.807-3.398c7.842,0,11.357,1.5,15.807,3.398   c5.056,2.157,10.786,4.602,21.694,4.602c10.908,0,16.638-2.444,21.694-4.602c4.45-1.898,7.965-3.398,15.807-3.398   c7.844,0,11.359,1.5,15.81,3.398c5.056,2.157,10.787,4.602,21.696,4.602s16.64-2.444,21.695-4.602   c4.451-1.898,7.966-3.398,15.81-3.398c4.142,0,7.5-3.357,7.5-7.5S461.642,403.555,457.5,403.555z" fill="#FFFFFF"/>
	<path d="M72.5,389.134c4.142,0,7.5-3.357,7.5-7.5V175.945c0-67.547,54.953-122.5,122.5-122.5S325,108.398,325,175.945   c0,4.143,3.358,7.5,7.5,7.5s7.5-3.357,7.5-7.5c0-53.336-30.526-99.676-75.024-122.469C331.384,54.801,385,109.227,385,175.945   v205.691c0,4.143,3.358,7.5,7.5,7.5s7.5-3.357,7.5-7.5V175.945c0-75.817-61.682-137.5-137.5-137.5h-60   c-75.818,0-137.5,61.683-137.5,137.5v205.688C65,385.776,68.358,389.134,72.5,389.134z" fill="#FFFFFF"/>
	<path d="M202.5,291.247c4.142,0,7.5-3.357,7.5-7.5v-72.5h22.5c4.142,0,7.5-3.357,7.5-7.5s-3.358-7.5-7.5-7.5H210v-22.5   c0-4.143-3.358-7.5-7.5-7.5s-7.5,3.357-7.5,7.5v22.5h-22.5c-4.142,0-7.5,3.357-7.5,7.5s3.358,7.5,7.5,7.5H195v72.5   C195,287.89,198.358,291.247,202.5,291.247z" fill="#FFFFFF"/>
	<path d="M332.5,198.445c-4.142,0-7.5,3.357-7.5,7.5V385.26c0,4.143,3.358,7.5,7.5,7.5s7.5-3.357,7.5-7.5V205.945   C340,201.803,336.642,198.445,332.5,198.445z" fill="#FFFFFF"/>
	<path d="M135,341.134c0,4.411,3.589,8,8,8s8-3.589,8-8s-3.589-8-8-8S135,336.723,135,341.134z" fill="#FFFFFF"/>
	<path d="M105,311.134c0,4.411,3.589,8,8,8s8-3.589,8-8s-3.589-8-8-8S105,306.723,105,311.134z" fill="#FFFFFF"/>
</g>
<g>
</g>
<g>
</g>
<g>
</g>
<g>
</g>
<g>
</g>
<g>
</g>
<g>
</g>
<g>
</g>
<g>
</g>
<g>
</g>
<g>
</g>
<g>
</g>
<g>
</g>
<g>
</g>
<g>
</g>
</svg>
